<?xml version="1.0" encoding="UTF-8" standalone="no"?>
<!-- Created with Inkscape (http://www.inkscape.org/) -->

<svg
   width="775.68976mm"
   height="135.46666mm"
   viewBox="0 0 775.68976 135.46666"
   version="1.1"
   id="svg1"
   sodipodi:docname="logo-full.svg"
   inkscape:version="1.4.2 (ebf0e940d0, 2025-05-08)"
   xmlns:inkscape="http://www.inkscape.org/namespaces/inkscape"
   xmlns:sodipodi="http://sodipodi.sourceforge.net/DTD/sodipodi-0.dtd"
   xmlns="http://www.w3.org/2000/svg"
   xmlns:svg="http://www.w3.org/2000/svg">
  <sodipodi:namedview
     id="namedview1"
     pagecolor="#ffffff"
     bordercolor="#000000"
     borderopacity="0.25"
     inkscape:showpageshadow="2"
     inkscape:pageopacity="0.0"
     inkscape:pagecheckerboard="0"
     inkscape:deskcolor="#d1d1d1"
     inkscape:document-units="mm"
     inkscape:zoom="0.25"
     inkscape:cx="764"
     inkscape:cy="-494"
     inkscape:window-width="1804"
     inkscape:window-height="1014"
     inkscape:window-x="0"
     inkscape:window-y="0"
     inkscape:window-maximized="1"
     inkscape:current-layer="svg1" />
  <defs
     id="defs1" />
  <g
     id="layer1">
    <rect
       style="fill:#8ad6b7;fill-opacity:1;stroke:none;stroke-width:5.27077;stroke-linecap:square;stroke-dasharray:none;stroke-opacity:1;paint-order:normal"
       id="rect9"
       width="210"
       height="135.46666"
       x="0"
       y="0"
       ry="67.73333" />
    <rect
       style="fill:#171717;fill-opacity:1;stroke:none;stroke-width:9.62997;stroke-linecap:square;stroke-dasharray:none;stroke-opacity:1;paint-order:normal"
       id="rect9-3"
       width="701"
       height="135.46666"
       x="75.560234"
       y="0"
       ry="67.73333" />
    <path
       id="text1"
       style="font-family:'Adwaita Mono';-inkscape-font-specification:'Adwaita Mono';fill:#171717;fill-opacity:1;stroke:none;stroke-width:2.91886;stroke-linecap:square;stroke-dasharray:none;stroke-opacity:1"
       d="m 104.10399,29.964562 -34.503297,74.982628 -2.8775,-4.22958 c 0.91445,-1.162999 1.67689,-2.403149 2.28749,-3.720384 0.69022,-1.32352 1.22707,-2.68611 1.61052,-4.08749 0.46014,-1.40137 0.76718,-2.84166 0.92056,-4.3209 0.15338,-1.47923 0.22986,-2.95819 0.22986,-4.43742 v -37.95409 c 0,-2.25778 -0.22982,-4.51562 -0.68996,-6.77339 -0.38345,-2.25778 -1.11207,-4.35984 -2.18573,-6.306199 -0.99697,-2.024219 -2.33929,-3.815091 -4.02648,-5.37218 -1.6105,-1.634943 -3.41246,-2.919455 -5.4064,-3.853707 -1.99395,-0.934254 -4.10295,-1.596027 -6.32697,-1.985299 -2.22402,-0.389273 -4.44829,-0.583718 -6.6723,-0.583718 -2.22402,0 -4.44793,0.194445 -6.67195,0.583718 -2.22402,0.389272 -4.33301,1.051045 -6.32696,1.985299 -1.993947,0.934252 -3.834338,2.218764 -5.521523,3.853707 -1.610497,1.557089 -2.952815,3.347961 -4.026479,5.37218 -0.996973,1.946359 -1.725589,4.048419 -2.18573,6.306199 -0.383452,2.25777 -0.574851,4.51561 -0.574851,6.77339 v 37.95409 c 0,2.25778 0.191399,4.51524 0.574851,6.77303 0.460141,2.25777 1.188757,4.39887 2.18573,6.42308 1.073664,1.946375 2.415982,3.737244 4.026479,5.372184 1.687185,1.55709 3.527576,2.80257 5.521523,3.73682 1.99395,0.93425 4.10294,1.59603 6.32696,1.9853 2.22402,0.38927 4.44793,0.58408 6.67195,0.58408 2.37739,0 4.755,-0.23384 7.1324,-0.70097 2.34124,-0.38335 4.53366,-1.14424 6.5774,-2.28264 l 5.58683,8.23269 -0.001,0.003 h 0.004 5.3e-4 10.18131 L 114.29035,29.964282 Z m -57.640207,7.2e-5 c 1.45711,0 2.87592,0.116742 4.25634,0.350305 1.38043,0.233564 2.68432,0.700524 3.91136,1.401215 1.30374,0.622837 2.45394,1.47942 3.45091,2.569382 1.07366,1.012105 1.91719,2.17988 2.53071,3.5034 0.61353,1.24567 1.03547,2.60826 1.26554,4.08749 0.23007,1.40138 0.34499,2.84167 0.34499,4.3209 v 37.95409 c 0,1.40138 -0.11492,2.7636 -0.34499,4.08712 -0.15293,1.31962 -0.49649,2.60051 -1.03061,3.84275 l -10.24158,-15.05467 h -10.12393 l 7.9e-4,10e-4 h -0.001 l 0.59181,0.87046 13.9985,20.627395 c -1.29811,0.69536 -2.67212,1.19798 -4.12211,1.507869 -1.45712,0.23356 -2.95277,0.35031 -4.48658,0.35031 -1.45712,0 -2.87592,-0.11675 -4.25634,-0.35031 -1.38043,-0.233559 -2.72238,-0.661479 -4.02612,-1.284329 -1.22704,-0.70069 -2.37724,-1.557275 -3.45091,-2.569385 -0.99697,-1.08996 -1.80243,-2.25773 -2.41596,-3.5034 -0.613519,-1.32353 -1.035101,-2.68611 -1.265172,-4.08749 -0.230071,-1.47923 -0.345342,-2.9582 -0.345342,-4.43742 v -37.95402 c 0,-1.47924 0.115271,-2.91952 0.345342,-4.3209 0.230071,-1.47924 0.651653,-2.84182 1.265172,-4.08749 0.61353,-1.32353 1.41899,-2.491296 2.41596,-3.503404 1.07367,-1.089964 2.22387,-1.946547 3.45091,-2.569382 1.30374,-0.70069 2.64569,-1.167651 4.02612,-1.401214 1.38042,-0.233564 2.79922,-0.350306 4.25634,-0.350306 z" />
    <text
       xml:space="preserve"
       style="font-size:135.467px;font-family:'Adwaita Mono';-inkscape-font-specification:'Adwaita Mono';text-align:start;writing-mode:lr-tb;direction:ltr;text-anchor:start;fill:#8ad6b7;fill-opacity:1;stroke-width:0.264583"
       x="21.147913"
       y="114.27744"
       id="text2"><tspan
         id="tspan1"
         style="font-size:135.467px;fill:#8ad6b7;fill-opacity:1;stroke-width:0.264583"
         x="21.147913"
         y="114.27744"> ueTueDue</tspan></text>
    <path
       style="fill:#8ad6b7;fill-opacity:1;stroke-width:0.264583"
       d="M 78.139932,86.387492 83.010953,98.743324 114.28759,29.964062 H 104.10114 Z"
       id="path2" />
  </g>
</svg>
